<svg width="649" height="790" viewBox="0 0 649 790" fill="none" xmlns="http://www.w3.org/2000/svg">
<path d="M143.396 0.190011C143.797 0.150011 144.199 0.117011 144.601 0.0909112C165.769 -1.25379 181.251 12.4222 179.89 34.2581C179.685 37.5452 179.633 41.5497 179.817 44.8278C180.237 44.7961 180.657 44.7702 181.078 44.75C183.242 44.6652 182.917 44.7357 184.159 45.9152C187.419 54.2048 179.424 65.2296 177.378 72.5729C173.932 84.9437 167.495 103.464 182.578 110.135C194.795 115.538 205.963 123.552 218.076 129.023C222.09 130.836 230.059 129.833 234.491 130.755C267.286 136.362 273.182 173.462 268.001 200.904C267.742 202.277 272.807 217.899 273.331 222.198C274.511 231.866 273.331 241.775 275.278 251.234C278.086 262.097 284.763 274.153 285.835 285.445C288.843 317.134 285.804 348.456 290.991 380.372C293.114 393.43 295.747 404.188 290.123 415.992C284.834 427.089 280.17 433.541 269.617 440.524C267.482 441.936 266.066 442.634 263.605 442.088C257.432 436.939 267.805 427.049 271.33 422.214C274.577 417.759 278.435 403.574 272.846 400.474C267.58 403.57 271.452 426.12 259.264 420.341C258.497 418.964 258.429 419.088 258.531 417.306C258.776 413.056 259.631 408.631 260.125 404.369C260.621 400.082 260.287 394.272 261.42 390.301C263.428 383.264 269.611 375.242 268.296 367.55C264.43 345.23 249.651 327.381 242.7 306.137C237.77 291.071 240.105 279.626 239.299 264.729C239.084 260.759 232.207 248.886 230.263 244.394C227.62 238.29 225.638 232.949 223.562 226.386C219.014 239.108 212.643 255.234 210.28 268.283C207.899 281.435 211.545 296.241 213.455 309.181C214.178 314.084 212.12 321.691 213.084 326.876C215.248 338.516 220.626 350.422 223.42 361.823C230.653 391.338 236.799 424.012 238.171 454.321C238.755 467.22 235.734 487.785 233.064 500.204C229.553 516.527 225.467 530.629 227.313 547.744C229.574 568.705 242.502 588.636 243.093 610.336C243.485 624.752 240.017 638.726 237.533 652.797C233.084 677.998 227.671 704.008 231.049 729.642C233.02 744.597 237.667 753.587 247.402 765.301C250.323 768.816 255.749 771.546 257.158 776.257C257.729 778.167 256.773 781.778 256.001 782.278C250.739 785.685 238.418 788.655 232.774 789.238C225.217 790.02 218.317 789.188 213.868 782.886C212.978 781.714 209.704 775.366 208.915 774.826C195.357 765.545 198.17 762.367 200.999 747.846C201.54 745.07 199.337 737.659 199.892 734.183C201.619 723.376 204.285 712.54 203.034 701.41C201.463 685.48 198.374 668.966 193.199 653.779C189.798 643.797 184.815 634.177 182.679 623.751C178.358 603.919 187.507 585.716 184.933 566.431C184.172 560.729 180.225 551.968 178.509 546.063L161.687 488.721C152.731 458.284 151.959 444.122 148.956 413.591C148.068 412.424 147.606 412.223 146.346 412.347C145.568 413.123 144.956 414.258 144.926 415.358C144.062 446.688 137.326 471.925 128.316 501.698L117.923 536.891C115.154 546.069 111.949 555.622 109.82 564.994C108.266 572.49 109.255 582.252 110.745 589.631C115.681 614.071 111.392 629.238 101.895 651.605C94.8979 668.084 91.5179 692.833 90.2999 710.725C89.8119 717.897 92.7079 725.475 93.6339 732.539C94.3879 735.778 91.6869 744.637 92.1139 747.116C94.5199 761.086 99.0579 764.636 85.1319 774.378C84.0759 775.117 78.5399 783.527 76.2279 785.736C70.5799 791.13 63.9219 789.526 56.8249 788.819C51.5829 788.13 38.1389 785.663 36.3159 779.553C34.9179 773.537 41.8039 769.534 45.1059 765.896C82.8789 724.284 52.1689 662.061 50.749 613.725C50.082 591.036 63.7529 571.325 66.5639 549.35C69.4079 527.114 62.8919 511.779 58.9639 491.121C56.7249 479.147 55.7549 466.97 56.0719 454.792C56.466 438.448 58.2399 429.114 60.5769 413.354C63.2349 395.424 65.8939 379.346 70.7479 361.766C73.7819 350.776 78.2489 339.343 80.8699 328.377C82.1609 322.977 80.0229 313.441 81.0399 306.837C82.6589 296.318 86.0219 283.996 84.5899 273.492C82.4719 257.966 76.0399 241.282 71.0099 226.4C68.9429 233.219 66.3439 239.864 63.236 246.276C55.866 261.254 52.6939 262.349 54.8679 279.839C55.6749 286.334 53.1219 302.386 50.8719 308.549C43.7899 327.945 29.7239 345.444 26.2959 366.382C24.7329 375.126 30.5349 382.456 32.6569 390.438C33.7079 395.682 33.3599 401.019 34.1059 406.369C34.4689 408.978 36.9249 420.199 34.111 421.392C23.451 425.911 25.3369 402.511 21.0259 400.641C15.3179 404.109 19.8859 419.386 23.6819 423.72C27.5309 428.115 36.1719 437.17 30.4779 442.349C28.8469 442.812 27.8079 442.719 26.2379 442.033C14.2339 436.79 5.40693 422.154 0.974932 410.314C-1.17707 404.566 0.793938 395.784 1.56194 389.771C2.66594 381.132 3.25494 372.501 4.24994 363.869C5.07294 356.728 6.43094 349.711 6.66194 342.505C7.18694 326.112 5.49194 309.472 7.37194 293.15C9.15194 277.696 16.8829 264.251 19.4779 249.22C21.1009 239.825 19.9419 229.95 21.3119 220.443C22.3089 213.526 25.6919 207.026 26.2639 200.049C26.5789 196.217 25.3099 192.167 24.857 188.36C23.558 177.457 25.4189 165.326 30.0519 155.378C36.1639 142.251 46.7999 131.667 61.7519 130.419C66.8309 129.995 72.9279 130.326 77.6989 128.413C83.7029 126.005 89.5379 121.69 95.2419 118.577C101.755 115.023 108.779 112.076 114.992 108.025C116.306 107.167 118.072 106.093 118.609 104.552C122.429 93.585 119.92 81.0009 115.406 70.5515C112.792 64.5013 109.658 58.7659 108.892 52.113C107.778 42.4329 112.185 46.2074 113.712 44.3127C113.964 44.0005 111.07 22.9686 120.762 10.9559C126.594 3.72801 134.439 1.11131 143.396 0.190011Z" fill="#3A3E42"/>
<path d="M502.118 11.2783C524.8 8.80211 541.241 23.0552 539.972 45.834C539.852 47.9794 539.012 54.7445 539.899 56.2214C541.919 56.6224 542.291 56.5653 543.84 57.7984C547.071 64.6033 538.817 77.3408 536.633 84.0113C533.446 93.746 529.761 106.896 535.179 116.436C536.599 118.935 545.892 123.411 548.603 125.044C558.08 130.011 566.865 136.061 576.517 140.604C578.988 141.322 582.703 141.115 585.161 141.289C614.819 143.241 627.354 174.022 625.911 200.249C625.418 209.221 629.536 219.981 630.619 228.952C630.848 230.849 631.177 232.925 631.429 234.858C632.465 242.81 631.422 251.112 632.341 259.033C633.813 271.726 641.033 283.255 642.452 295.991C645.306 315.07 643.299 334.153 644.006 353.31C643.994 361.79 646.576 370.651 646.112 379.111C645.375 392.572 652.235 409.664 646.446 422.023C643.661 427.968 640.371 435.16 635.992 439.767C632.693 443.238 621.017 453.244 616.136 448.506C614.9 444.317 623.227 435.795 625.638 431.847C628.119 427.786 635.777 410.562 626.57 409.748C623.709 414.641 625.398 426.624 618.525 429.834C617.063 429.926 613.931 429.393 614.116 427.674C615.054 418.952 615.239 407.016 616.963 398.661C618.393 391.73 625.983 384.067 624.631 375.657C621.053 353.407 606.963 335.5 600.036 314.526C594.865 299.375 598.982 286.834 597.077 273.268C596.037 265.854 586.396 250.202 583.378 241.107C581.753 246.039 579.574 252.794 577.434 257.022C569.237 273.218 564.141 282.879 566.722 301.55C567.499 307.171 565.267 317.643 566.447 324.412C569.98 344.878 578.11 364.189 582.752 384.507C591.439 422.533 599.605 463.446 595.16 502.522C592.865 522.696 588.226 540.475 591.096 561.067C593.364 581.815 606.943 603.972 605.546 624.954C603.361 657.794 595.227 690.67 594.657 723.716C594.522 731.578 596.988 740.793 597.381 748.606C598.194 764.812 617.434 768.379 623.098 776.22C624.306 785.46 605.86 785.056 600.766 786.327C581.528 791.129 557.926 796.084 565.528 766.386C566.16 763.918 567.04 759.539 567.208 756.938C567.522 752.08 564.495 745.169 564.778 740.427C565.239 732.702 567.793 725.66 566.601 717.754C564.598 698.549 560.404 678.562 554.073 660.359C550.871 651.154 546.9 644.619 544.613 634.85C540.073 615.459 549.068 595.954 546.924 577.147C545.527 570.305 543.085 563.681 541.227 556.957C534.155 531.357 523.904 507.097 516.896 481.484C511.873 463.127 509.764 446.272 507.868 427.425C507.779 426.208 507.525 424.713 506.494 424.099C502.624 426.4 501.535 449.165 500.631 454.789C496.305 481.717 486.916 504.084 478.203 529.537C474.931 539.095 472.31 548.716 469.657 558.45C467.72 565.557 465.066 572.927 464.016 580.2C463.25 585.502 464.445 591.035 465.23 596.267C466.936 607.621 469.276 620.372 466.987 631.775C464.842 642.466 459.576 652.025 455.939 662.208C450.297 678 445.936 697.913 444.094 714.485C443.046 723.909 445.423 732.566 445.17 741.747C445.024 747.046 442.869 752.312 443.171 757.634C443.597 765.149 448.131 774.241 445.827 781.636C444.999 784.295 442.687 786.383 440.267 787.654C432.043 791.976 404.043 786.528 394.466 783.778C391.432 782.907 388.342 781.721 386.744 778.83C386.669 771.76 398.819 768.887 403.858 763.89C412.651 755.169 412.113 749.262 413.985 737.883C420.474 698.446 405.259 659.019 405.776 619.716C405.971 604.905 413.935 587.604 417.825 573.313C420.144 564.621 421.338 555.668 421.378 546.672C421.598 529.951 418.127 516.36 415.974 499.924C414.416 488.027 414.583 472.88 415.782 460.883C418.788 430.818 426.067 399.309 433.527 370.022C436.498 356.193 443.307 341.96 445.459 328.074C447.463 315.142 445.302 298.926 447.186 285.498C447.733 281.601 445.563 275.598 443.801 272.131C438.593 261.886 434.6 252.157 431.019 241.218C429.169 246.275 427.054 251.232 424.685 256.068C415.776 274.111 415.874 268.821 416.435 289.562C416.703 299.6 415.224 309.607 412.063 319.138C406.041 337.208 390.925 355.94 388.405 376.45C387.481 383.966 395.356 394.818 395.573 398.829C395.836 403.672 398.53 425.046 397.85 428.562C390.387 436.454 387.066 416.06 386.979 412.439C386.951 411.28 385.718 410.476 384.785 409.92L383.574 410.479C373.746 425.4 399.446 442.047 393.616 449.489C391.953 450.329 390.868 450.528 389.073 449.865C378.053 445.795 368.864 430.194 364.149 419.973C361.66 414.578 363.889 405.347 364.563 399.541C365.565 390.918 366 382.334 366.851 373.719C367.65 365.629 369.086 357.831 369.37 349.677C369.906 334.324 368.603 319.247 370.411 303.888C372.448 286.594 379.625 273.065 382.202 257.169C383.329 250.218 382.457 242.911 383.085 235.874C383.895 226.8 386.796 218.244 388.068 209.292C389.906 196.358 388.259 184.731 392.93 171.956C397.33 159.924 407.666 145.157 421.241 142.974C427.632 141.946 434.329 142.285 440.305 139.45C445.049 137.2 475.391 120.198 477.732 117.788C479.265 116.209 480.082 113.329 480.671 111.226C486.16 91.6117 466.358 68.0619 470.036 59.1841C470.783 57.3792 472.084 56.8077 473.816 56.1097C474.819 55.7058 474.631 53.6665 474.611 52.6217C474.412 42.2165 473.731 33.1637 480.129 24.1799C485.386 16.798 493.351 12.7685 502.118 11.2783Z" fill="#3A3E42"/>
<path d="M630.557 280C642.691 282.61 638.189 334.341 638.455 343.677C638.639 350.116 640.273 358.298 640.127 364.463L639.319 365.053L637.357 364.474C634.651 355.598 632.722 340.837 631.276 331.3C628.891 315.57 618.86 293.19 630.557 280Z" fill="#B9B8B8"/>
<path d="M469.86 349.822C501.099 347.921 513.417 392.45 497.163 414.356C490.084 423.897 477.379 427.62 465.966 428.945C451.319 429.195 439.273 420.898 436.533 405.761C434.882 396.642 440.954 393.391 446.051 386.7C443.625 383.933 441.685 381.696 439.51 378.74C443.491 365.683 455.907 352.137 469.86 349.822Z" fill="#B9B8B8"/>
<path d="M537.447 349.832C542.225 349.57 546.399 350.057 550.776 352.11C560.9 356.86 569.117 368.217 572.826 378.502C570.979 381.313 568.633 383.894 566.505 386.502C569.183 390.76 572.995 394.232 575.8 398.465C575.636 404.62 574.456 410.688 571.376 416.092C567.41 423.05 561.606 426.364 554.084 428.454C497.553 435.207 496.33 358.831 537.447 349.832Z" fill="#B9B8B8"/>
<path d="M533.625 432.464C539.359 432.711 544.227 434.463 549.16 437.292C552.866 444.855 554.924 453.708 556.759 461.894C564.304 495.548 563.184 529.097 552.609 561.945C552.188 562.949 551.684 563.897 551.185 564.863L550.551 564.831C549.119 560.862 548.903 555.957 548.287 551.776C547.135 543.956 545.979 536.165 544.422 528.413C540.358 508.177 522.04 454.66 529.128 436.886C530.057 434.557 531.355 433.417 533.625 432.464Z" fill="#B9B8B8"/>
<path d="M475.629 432.528C477.105 432.469 478.53 432.433 479.846 433.211C481.665 434.286 482.57 436.518 483.068 438.473C484.384 443.642 483.816 449.548 483.375 454.827C482.264 467.567 479.997 480.18 476.603 492.509C473.134 505.032 468.84 517.418 466.327 530.179C465.167 536.068 462.829 561.555 460.847 564.967L460.098 564.662C459.697 563.563 459.326 562.454 458.985 561.335C449.207 530.021 447.871 500.096 453.905 467.938C455.849 457.575 458.444 446.254 463.369 436.869C467.363 434.41 471.015 433.293 475.629 432.528Z" fill="#B9B8B8"/>
<path d="M419.455 191.27C424.244 190.632 425.182 193.153 426.8 197.452C432.939 213.764 412.721 263.295 395.841 268.044C387.727 265.628 387.376 254.1 387.072 247.032C385.951 221.001 392.957 199.678 419.455 191.27Z" fill="#B9B8B8"/>
<path d="M591.991 191.207C597.304 190.376 604.771 194.219 609.107 197.139C623.932 207.127 628.66 225.149 628.01 242.137C627.72 249.708 627.577 260.082 623.124 266.399C617.92 268.99 613.463 266.051 610.23 261.906C598.049 246.293 579.019 209.715 591.991 191.207Z" fill="#B9B8B8"/>
<path d="M580.003 145.146C603.13 143.071 614.398 163.431 620.679 182.986C621.834 186.581 624.225 198.043 619.051 199.27C615.823 198.11 611.669 195.069 608.703 193.088C592.679 182.96 576.162 177.314 563.606 161.73C553.623 149.339 571.73 146.284 580.003 145.146Z" fill="#B9B8B8"/>
<path d="M428.973 145.116C431.461 144.973 434.413 145.243 436.881 145.515C483.939 150.715 423.329 183.819 410.618 190.495C407.155 192.617 397.002 200.175 394.289 199.797C387.889 192.563 401.034 165.105 407.055 158.135C414.421 149.608 418.046 146.656 428.973 145.116Z" fill="#B9B8B8"/>
<path d="M438.98 553.154C439.067 553.252 439.174 553.337 439.243 553.45C440.918 556.187 439.447 583.492 439.099 588.189C438.035 602.532 436.665 636.106 425.354 645.113C424.085 646.124 422.543 646.748 420.903 646.475C418.379 646.054 416.895 643.985 415.45 642.093C412.203 636.903 410.586 630.858 410.117 624.789C408.301 601.313 423.983 570.726 438.98 553.154Z" fill="#B9B8B8"/>
<path d="M571.767 553.008C571.969 553.095 572.174 553.175 572.373 553.268C580.942 557.277 592.667 585.606 595.946 594.487C601.93 610.692 603.916 624.811 596.478 641.016C595.789 642.036 595.018 643.201 594.145 644.07C592.838 645.37 591.028 646.626 589.104 646.578C587.565 646.54 586.208 645.439 585.234 644.339C571.917 629.29 571.134 572.813 571.767 553.008Z" fill="#B9B8B8"/>
<path d="M556.38 437.46C561.094 437.918 565.976 438.483 569.788 441.545C571.898 443.24 573.744 445.54 574.831 448.023C581.974 464.349 580.67 501.638 581.536 520.655C582.11 533.28 583.225 546.251 584.706 558.806C584.605 558.738 584.501 558.673 584.402 558.601C567.921 546.801 565.565 492.291 562.702 472.514C560.999 460.757 558.205 449.193 556.38 437.46Z" fill="#B9B8B8"/>
<path d="M452.561 437.753C453.654 437.631 454.477 437.696 455.549 437.859L455.961 438.707C449.899 460 448.18 482.102 445.414 503.979C444.004 515.127 442.845 526.567 439.345 537.295C437.005 544.467 433.602 550.76 429.369 556.953L427.971 558.047C427.77 557.716 427.62 557.532 427.577 557.103C427.293 554.296 428.236 550.496 428.486 547.602C429.025 541.36 429.357 535.088 429.728 528.833C430.818 510.437 429.505 456.996 440.139 443.371C443.207 439.439 447.917 438.448 452.561 437.753Z" fill="#B9B8B8"/>
<path d="M561.449 553.688C565.407 561.694 571.59 611.001 572.306 622.039C572.623 626.932 572.66 631.945 571.85 636.792C571.238 640.455 569.822 645.465 566.539 647.601C564.536 648.903 562.749 648.527 560.519 648.101C554.368 644.125 550.963 638.161 549.305 631.097C545.089 613.133 551.793 569.302 561.449 553.688Z" fill="#B9B8B8"/>
<path d="M450.196 554.035C450.656 554.389 451.11 554.776 451.466 555.239C459.928 566.243 464.858 613.161 462.763 627.59C461.593 635.646 458.212 642.901 451.628 647.841C450.09 648.303 448.192 648.775 446.594 648.424C444.558 647.977 443.175 646.361 442.149 644.655C434.153 631.355 446.005 570.871 450.196 554.035Z" fill="#B9B8B8"/>
<path d="M576.304 641.366C579.572 642.655 582.454 647.761 585.175 650.308C587.002 652.017 589.167 653.453 591.235 654.852C591.199 666.86 588.797 679.325 587.711 691.325C587.009 699.085 586.88 715.801 585.01 722.434C584.566 724.008 582.994 724.589 581.641 725.253C579.288 725.298 576.117 725.664 574.232 724.008C573.198 723.101 573.288 721.472 573.156 720.136C572.204 710.5 571.667 700.827 570.392 691.223C568.914 680.091 566.649 668.942 565.646 657.766C569.559 652.178 573.239 647.515 576.304 641.366Z" fill="#B9B8B8"/>
<path d="M434.445 641.57C437.133 643.804 442.833 654.381 445.176 658.044C444.673 669.038 441.676 680.453 440.308 691.468C439.589 697.261 438.514 720.624 436.791 724.226C435.207 725.654 433.398 725.708 431.371 726.008C429.639 725.639 428.275 725.189 426.725 724.327C425.978 723.451 425.745 722.851 425.561 721.697C424.096 712.496 424.071 702.777 423.277 693.474C422.197 680.811 420.287 667.888 420.13 655.191C425.275 650.704 429.861 646.698 434.445 641.57Z" fill="#B9B8B8"/>
<path d="M460.045 159.958C469.102 161.33 476.517 192.15 473.873 200.195C470.261 211.182 454.876 206.702 447.791 204.268C443.425 202.317 422.605 191.201 431.35 184.288C441.179 176.518 450.419 167.722 460.045 159.958Z" fill="#B9B8B8"/>
<path d="M553.268 159.825C555.709 160.024 583.805 183.77 585.559 186.434C586.08 194.083 576.548 199.758 570.678 202.804C539.444 216.541 536.573 199.4 545.623 174.683C547.792 168.757 549.41 164.859 553.268 159.825Z" fill="#B9B8B8"/>
<path d="M405.81 284.25C406.399 284.193 408.166 284.006 408.48 284.267C419.266 293.224 397.259 336.414 394.586 342.674C391.1 351.005 387.749 359.393 384.536 367.833L383.647 368.333C381.72 368.246 382.534 368.587 381.12 367.276C379.34 362.036 386.84 322.271 388.749 314.232C391.497 302.659 395.143 290.898 405.81 284.25Z" fill="#B9B8B8"/>
<path d="M605.481 283.478C627.481 289.345 630.54 344.345 632.727 363.769C632.995 366.153 631.778 367.124 630.228 368.564C627.766 365.871 624.263 354.472 622.88 350.489C617.467 334.894 595.106 298.572 605.481 283.478Z" fill="#B9B8B8"/>
<path d="M381.318 281.689C390.479 284.886 388.357 302.888 386.288 310.082C381.268 327.538 380.163 348.198 375.414 365.336C374.682 366.702 374.529 366.713 373.378 367.687L372.544 367.556C371.051 365.137 373.061 354.662 373.444 350.91C375.036 335.331 369.089 292.209 381.318 281.689Z" fill="#B9B8B8"/>
<path d="M425.8 424.474C429.002 429.088 430.354 432.844 430.72 438.587C431.601 452.43 429.146 467.548 427.904 481.4C426.829 493.396 426.112 505.025 425.373 516.975L423.652 517.728C417.504 485.262 422.097 457.275 425.8 424.474Z" fill="#B9B8B8"/>
<path d="M585.658 425.188C587.641 429.379 587.363 437.792 587.802 442.475C590.251 468.573 594.073 496.448 586.86 522.151C586.694 521.257 586.545 520.361 586.412 519.462C584.883 508.993 585.098 497.822 584.287 487.227C583.072 471.346 579.979 454.397 581.365 438.488C581.808 433.4 582.601 429.347 585.658 425.188Z" fill="#B9B8B8"/>
<path d="M587.271 225.807C589.248 227.887 592.173 236.803 594.223 240.343C599.777 249.934 606.431 269.166 618.769 271.19C622.89 271.867 627.02 267.434 629.906 264.854C629.268 270.796 628.185 274.641 626.38 280.175C625.326 283.938 624.169 287.116 622.843 290.77C619.058 286.174 615.804 280.957 611.855 276.403C600.357 263.147 587.771 244.15 587.271 225.807Z" fill="#B9B8B8"/>
<path d="M427.332 227.5C427.912 230.024 426.751 234.748 426.088 237.254C420.389 258.794 404.429 273.533 391.76 291.027C390.726 288.531 389.717 285.274 388.83 282.659C387.089 276.307 385.795 271.025 385.088 264.479C386.799 266.265 389.592 269.279 391.731 270.409C393.671 271.446 395.955 271.631 398.037 270.919C409.643 267.055 422.279 238.5 427.332 227.5Z" fill="#B9B8B8"/>
<path d="M425.373 516.975C425.281 518.801 425.538 519.638 424.641 521.011C423.911 519.448 423.932 519.445 423.652 517.728L425.373 516.975Z" fill="#ABABAC"/>
<path d="M223.968 571C224.818 571.279 225.6 571.61 226.287 572.199C229.969 575.351 232.113 582.922 233.683 587.484C236.92 596.884 239.612 606.85 239.88 616.851C240.342 634.137 232.232 660.09 229.578 678.309C227.593 691.931 227.144 705.197 227.419 718.939C227.465 720.279 227.403 721.057 226.829 722.277C225.576 723.423 224.93 723.795 223.238 724.026C221.597 723.39 221.381 723.116 220.303 721.704C218.649 713.09 219.938 693.388 219.674 683.435C219.052 659.954 211.885 589.142 223.968 571Z" fill="#B9B8B8"/>
<path d="M192.414 576C196.28 577.211 198.671 581.94 200.421 585.326C205.694 595.528 209.19 606.946 211.475 618.172C215.273 636.838 220.877 705.308 215.771 721.313C214.551 722.902 213.333 723.328 211.523 724.028C210.699 723.631 209.285 722.944 208.815 722.112C208.348 721.286 208.85 697.566 208.431 693.353C207.205 681.012 204.145 668.063 199.207 656.669C196.385 650.156 192.976 643.872 190.587 637.177C188.786 632.242 187.647 627.091 187.199 621.857C186.355 611.485 188.215 584.877 192.414 576Z" fill="#B9B8B8"/>
<path d="M204.677 529C208.645 529.241 215.223 531.633 218.022 534.408C221.957 538.309 224.016 551.354 223.778 556.782C223.528 562.491 220.112 568.231 218.651 573.745C217.266 578.977 217.403 584.554 215.895 589.764C215.407 591.451 214.876 592.885 213.514 594.06C211.917 594.544 211.02 594.543 209.418 594.078C206.519 590.682 188.698 557.851 189.004 555.035C189.19 553.327 203.158 530.373 204.677 529Z" fill="#B9B8B8"/>
<path d="M178.939 441C179.95 442.434 180.498 459.917 181.096 463.677C182.357 471.613 184.42 479.612 187.026 487.212C191.075 499.023 197.411 510.955 197.195 523.732C197.097 529.535 195.166 534.825 190.991 538.883C189.907 539.108 188.992 539.216 187.922 538.841C184.434 537.617 181.945 534.709 180.306 531.511C169.579 510.589 172.023 462.845 178.939 441Z" fill="#B9B8B8"/>
<path d="M200.162 364C201.686 364.517 202.48 364.964 203.492 366.227C207.235 370.901 210.054 377.325 212.869 382.632C227.659 410.52 233.651 436.52 229.734 468.191C228.142 481.057 223.377 510.477 212.869 518.684C211.482 518.776 210.235 518.585 208.962 517.982C201.159 514.288 192.153 488.958 189.277 480.317C179.064 449.626 182.617 423.617 190.661 392.878C193.212 383.127 195.647 373.057 200.162 364Z" fill="#B9B8B8"/>
<path d="M100.985 573L102.517 573.493C103.139 574.139 103.563 574.675 103.863 575.536C104.911 578.543 104.805 581.995 105.202 585.143C106.725 597.246 108.808 609.409 107.287 621.628C105.814 633.454 100.042 642.785 95.6135 653.549C92.0115 662.303 89.3255 671.813 87.5915 681.109C86.2105 688.515 85.6475 696.69 85.7485 704.231C85.8045 708.453 86.3095 712.93 86.0215 717.127C85.9455 718.246 85.6175 719.162 85.1075 720.148L84.6435 720.208C82.4045 720.476 81.2035 720.545 79.4035 719.15C77.7585 716.065 77.6065 712.346 77.4445 708.921C75.8125 674.356 77.6355 598.589 100.985 573Z" fill="#B9B8B8"/>
<path d="M68.7199 567C69.9869 567.372 71.0319 568.006 71.7719 569.126C73.8869 572.326 74.4159 577.387 75.0399 581.139C78.8749 604.184 77.4879 623.656 76.1719 646.67C75.5379 659.053 75.0539 671.444 74.7189 683.84C74.5049 691.933 76.1269 709.68 74.4129 716.331C73.9399 718.166 73.3579 718.773 71.7329 719.681C70.7589 719.648 69.5989 719.703 68.6869 719.334C67.5609 718.876 67.4389 718.12 66.9469 717.102C66.7269 699.544 66.1449 682.776 63.2709 665.373C61.3129 653.516 58.1829 641.884 56.1689 630.046C52.7839 610.143 56.6859 583.922 68.7199 567Z" fill="#B9B8B8"/>
<path d="M90.4162 523C91.3412 523.079 92.4522 523.129 93.2942 523.548C96.7602 525.272 97.7542 531.941 99.7262 535.09C102.08 538.849 106.756 542.483 107.959 546.753C108.599 549.021 107.801 551.829 106.952 553.977C104.984 558.954 101.581 563.723 98.9672 568.427C95.6952 574.317 92.7712 580.413 89.6233 586.373C89.0883 586.922 88.4902 587.588 87.8272 587.978C86.3862 588.826 85.5082 588.625 84.0252 588.24C83.3352 587.602 82.7302 586.94 82.3192 586.083C80.2702 581.8 80.3432 576.149 79.3552 571.534C76.2452 557.006 72.0392 555.048 75.0172 538.845C75.4542 536.464 75.4862 533.475 76.4452 531.278C78.0962 527.496 86.8202 524.631 90.4162 523Z" fill="#B9B8B8"/>
<path d="M115.771 436C120.157 446.221 121.049 462.636 121.546 473.701C122.213 488.564 122.826 519.658 111.918 530.933C109.736 533.189 107.486 534.186 104.372 534.258C103.893 533.821 103.442 533.397 103.014 532.909C89.4614 517.456 107.213 487.908 111.43 471.137C114.365 459.466 115.26 447.99 115.771 436Z" fill="#B9B8B8"/>
<path d="M92.1363 362L93.6563 362.699C98.2123 367.917 103.628 391.933 105.424 399.571C113.114 432.282 113.297 457.972 100.363 489.323C97.5553 496.131 94.5793 503.611 90.6393 509.838C88.4933 513.23 86.3893 515.863 82.2813 516.758C81.2483 516.345 80.2813 515.889 79.4033 515.19C71.3343 508.763 66.4793 483.692 64.9783 473.537C59.9983 439.842 64.1883 411.83 80.1943 381.861C83.8233 375.066 87.5283 368.192 92.1363 362Z" fill="#B9B8B8"/>
<path d="M208.862 343C209.81 343.037 211.094 343.141 211.681 343.866C217.417 350.957 226.826 390.658 226.718 397.923L225.95 397.631C219.617 387.365 210.366 369.202 206.857 357.726C205.207 352.332 205.973 347.811 208.862 343Z" fill="#B9B8B8"/>
<path d="M192.936 349.421C194.625 349.324 195.944 349.066 197.384 350.073C200.803 354.873 194.506 369.397 192.737 374.741C183.751 401.89 174.714 428.264 171.736 456.917C170.429 469.487 171.097 481.979 170.056 494.462L169.56 494.424L168.453 491.84C161.58 469.779 156.596 446.686 159.385 423.47C161.503 405.834 180.28 359.358 192.936 349.421Z" fill="#B9B8B8"/>
<path d="M98.7848 349.286C99.9038 349.246 101.118 349.176 102.206 349.486C106.4 350.679 110.083 357.227 112.096 360.788C116.935 369.54 121.363 378.513 125.368 387.678C142.31 425.722 139.66 449.142 128.748 488.523C127.845 491.271 126.781 493.865 125.578 496.495C126.289 473.336 124.349 451.362 119.604 428.7C116.245 412.664 110.599 396.665 105.48 381.116C102.921 373.343 99.7118 365.29 98.3378 357.211C97.8478 354.327 97.8918 352.086 98.7848 349.286Z" fill="#B9B8B8"/>
<path d="M121.499 314.845C125.466 314.763 142.932 313.612 143.726 317.346C145.685 326.562 146.718 364.226 144.71 371.879C143.486 373.743 142.952 373.767 140.792 374.704C128.849 370.811 122.587 352.859 119.629 341.563C117.529 333.541 113.379 320.144 121.499 314.845Z" fill="#B9B8B8"/>
<path d="M156.013 314.921C160.291 314.784 174.194 313.889 176.675 316.065C185.894 324.15 170.414 359.295 166.491 366.059C164.099 369.857 159.247 374.984 154.355 374.361C153.874 374.117 151.797 372.98 151.735 372.085C150.555 355.222 150.949 335.676 151.585 318.708C151.644 317.154 155.066 315.411 156.013 314.921Z" fill="#B9B8B8"/>
<path d="M204.578 273.491C205.054 273.659 205.985 273.956 205.936 274.604C205.048 286.297 209.388 298.899 209.56 310.063C209.645 313.794 209.064 317.51 207.843 321.036C204.584 330.416 197.413 338.216 188.545 342.603C186.171 342.5 185.271 342.254 183.695 340.525C182.474 336.418 185.971 296.068 186.831 288.808C189.806 284.682 200.153 276.976 204.578 273.491Z" fill="#B9B8B8"/>
<path d="M155.218 215.352C155.999 215.288 156.783 215.26 157.567 215.267C163.812 215.346 174.073 216.405 178.484 221.313C182.185 225.431 182.229 230.595 181.798 235.738C181.358 240.996 180.996 241.973 177.299 245.194C173.465 245.693 154.996 246.782 152.778 243.138C149.715 238.108 150.858 227.39 151.348 221.579C151.628 218.256 152.679 217.24 155.218 215.352Z" fill="#B9B8B8"/>
<path d="M155.166 281.857C170.388 282.047 183.688 277.457 181.232 299.19C180.678 304.09 180.158 305.564 176.345 308.734C170.866 310.704 156.08 312.535 152.525 306.737C149.523 301.838 150.69 292.684 151.438 287.138C151.85 284.093 152.758 283.496 155.166 281.857Z" fill="#B9B8B8"/>
<path d="M154.668 249.908C160.223 249.497 165.991 249.841 171.525 249.805C183.952 249.726 184.17 271.151 176.783 276.763C176.241 276.902 175.695 277.024 175.145 277.129C170.571 277.995 156.851 278.407 152.854 275.704C149.6 271.298 151.051 260.039 151.424 254.54C151.61 251.807 152.798 251.275 154.668 249.908Z" fill="#B9B8B8"/>
<path d="M214.765 212.337C225.652 222.695 195.967 237.158 188.939 239.245C188.347 238.966 188.003 238.593 187.477 238.156C186.58 235.888 186.32 223.185 188.916 222.061C197.462 218.36 206.027 216.078 214.765 212.337Z" fill="#B9B8B8"/>
<path d="M213.378 229.614C213.96 229.861 214.175 230.16 214.685 230.609C217.624 244.056 198.408 255.781 188.256 259.686C185.445 256.249 186.23 251.179 186.477 247.058C186.733 242.778 193.182 240.839 196.696 239.226C202.817 236.417 207.743 233.365 213.378 229.614Z" fill="#B9B8B8"/>
<path d="M90.8889 272.961C94.0499 274.309 105.692 284.393 108.111 287.313C109.997 289.589 110.335 302.258 110.63 306.122C111.446 316.775 113.191 327.889 113.113 338.586C113.098 340.617 110.988 341.91 109.509 342.986C102.866 341.362 96.4229 335.179 92.7009 329.637C82.9329 315.09 87.5769 303.31 89.7489 287.521C90.4239 282.615 89.9149 277.819 90.8889 272.961Z" fill="#B9B8B8"/>
<path d="M135.089 215.489L135.694 215.435C143.2 214.827 145.412 219.189 145.667 226.032C146.472 247.677 143.101 245.615 125.022 245.418C112.412 245.709 111.782 230.589 116.967 222.516C120.408 217.159 129.14 216.284 135.089 215.489Z" fill="#B9B8B8"/>
<path d="M121.651 281.861C124.61 281.825 139.029 281.34 141.065 282.11C147.295 284.466 146.003 301.04 144.479 306.233C143.851 308.374 142.204 309.258 140.197 310.143C134.767 310.234 126.969 310.749 121.934 309.33C113.872 307.059 113.605 292.953 116.122 286.554C117.267 283.644 118.985 282.892 121.651 281.861Z" fill="#B9B8B8"/>
<path d="M120.92 250.038C126.963 249.668 135.147 249.858 141.352 249.821L145.092 253.324C145.377 260.032 148.282 276.152 139.475 277.456C123.441 277.299 111.039 281.323 115.388 257.438C116.095 253.55 117.654 252.037 120.92 250.038Z" fill="#B9B8B8"/>
<path d="M80.4248 212C84.2948 212.934 88.8958 215.481 92.7128 216.854C97.8298 218.694 105.16 219.197 108.409 223.753C110.608 226.836 109.539 235.988 108.631 239.407C106.577 239.023 104.558 238.468 102.595 237.747C93.4018 234.314 75.4468 224.282 80.4248 212Z" fill="#B9B8B8"/>
<path d="M81.5127 229.41C84.8947 230.884 90.2217 234.559 93.7277 236.498C99.1117 239.475 103.413 241.111 109.085 243.444C110.311 250.181 110.249 252.313 109.224 259.106C108.511 259.3 107.709 259.505 106.97 259.284C95.6017 255.874 78.7497 242.846 81.5127 229.41Z" fill="#B9B8B8"/>
<path d="M85.4888 335.196C101.58 338.157 76.6478 379.238 72.5848 387.211C71.9918 388.453 71.8418 389.121 70.6578 389.804C68.5378 384.666 80.9148 341.418 85.4888 335.196Z" fill="#B9B8B8"/>
<path d="M86.5408 251.324C87.9488 251.734 106.991 263.315 109.379 264.744C110.312 270.647 110.244 275.336 109.415 281.23C100.04 281.477 84.4998 261.529 86.5408 251.324Z" fill="#B9B8B8"/>
<path d="M208.368 251.556L209.283 251.977C212.672 261.633 196.527 278.025 188.139 281.417C186.007 279.07 185.825 272.704 186.288 269.718C187.509 261.842 201.897 255.985 208.368 251.556Z" fill="#B9B8B8"/>
<path d="M183.558 134.185C199.23 132.667 207.207 140.668 216.032 152.517C218.49 155.817 221.087 159.19 222.632 163.024C219.472 160.437 216.299 157.865 213.113 155.31C197.012 143.993 184.751 141.286 166 138.303C172.371 136.034 176.99 135.077 183.558 134.185Z" fill="#B9B8B8"/>
<path d="M162.718 142.019C185.425 141.46 210.724 153.485 226.605 169.407C236.612 179.44 217.725 198.89 210.285 204.875C208.998 205.83 206.499 206.939 205.191 208.147C196.938 215.768 154.995 210.674 151.463 200.233C149.163 193.434 149.806 162.377 151.795 153.573C152.93 148.554 157.854 144.493 162.718 142.019Z" fill="#B9B8B8"/>
<path d="M129.241 142.062C150.043 140.496 147.142 169.016 147.028 182.3C146.933 193.532 148.64 203.683 135.327 207.155C120.175 211.106 105.887 215.394 91.061 207.72C90.069 207.104 89.1009 206.448 88.1619 205.754C81.2939 200.65 69.476 187.992 68.058 178.896C67.521 175.451 70.8309 169.872 73.2059 167.329C87.5159 152.002 108.89 143.747 129.241 142.062Z" fill="#B9B8B8"/>
<path d="M103.244 134.207C114.147 133.423 120.587 134.836 130.922 138.92C114.238 140.182 104.16 142.747 89.355 150.744C83.085 154.737 78.519 158.549 73 163.43C73.304 162.855 73.619 162.285 73.945 161.722C80.892 149.625 89.354 137.989 103.244 134.207Z" fill="#B9B8B8"/>
<path d="M272.616 257C276.516 259.791 278.762 267.883 279.925 272.399C281.791 279.675 283.018 287.099 283.593 294.588C285.092 313.155 282.489 331.394 285.066 349.83C285.497 352.911 286.465 355.722 284.846 358.47C282.717 358.89 283.549 358.886 281.309 357.897C277.849 347.33 276.852 331.075 274.171 319.622C270.247 302.866 258.83 271.473 272.616 257Z" fill="#B9B8B8"/>
<path d="M246.586 275C268.214 275.724 275.622 339.82 275.987 356.95C275.987 356.95 274.789 358.69 274.658 358.881C271.681 357.799 270.49 353.713 269.607 350.763C263.351 329.873 238.55 297.52 246.586 275Z" fill="#B9B8B8"/>
<path d="M239.311 198.008C245.961 197.802 251.159 201.625 256.084 205.635C277.154 222.788 273.345 250.065 262.96 272.047C259.994 276.42 256.926 274.568 253.261 271.844C237.182 259.892 225.075 215.003 239.311 198.008Z" fill="#B9B8B8"/>
<path d="M46.3315 275C47.2135 275.056 48.1325 275.201 49.0145 275.317C52.8705 278.593 51.4515 284.536 50.9505 288.95C48.9685 306.433 39.4535 320.889 32.3095 336.502C29.1545 343.397 26.8975 350.943 23.9265 358.003C21.9405 358.508 21.2615 357.868 20.1325 356.387C18.9465 350.005 26.0415 311.76 28.6035 303.915C32.2415 292.775 35.3575 281.038 46.3315 275Z" fill="#B9B8B8"/>
<path d="M22.8322 256C29.2952 258.966 30.5992 275.234 29.9982 281.214C28.6392 294.736 24.1532 308.245 21.2912 321.599C18.8832 332.833 17.9501 345.579 14.7991 356.446C12.9451 358.036 13.7732 357.766 11.5682 357.982C10.9342 357.576 9.84215 357.019 10.0191 356.063C15.8541 324.551 4.86617 284.502 22.8322 256Z" fill="#B9B8B8"/>
<path d="M53.5234 194.005C60.5974 193.783 61.8174 201.784 62.5474 207.361C65.0644 226.58 60.5974 246.585 48.5304 261.973C45.3914 265.976 41.0764 270.454 35.7804 271.041C32.0574 266.52 31.0814 262.377 28.9494 257.063C19.5364 233.598 26.6494 202.406 53.5234 194.005Z" fill="#B9B8B8"/>
<path d="M223.001 134.212C255.232 131.188 267.834 161.097 264.322 189.518C263.952 192.519 262.925 196.23 260.367 198.037C258.211 198.159 258.993 198.225 256.854 196.841C242.348 183.251 230.693 168.899 219.44 152.606C211.849 141.614 206.055 138.652 223.001 134.212Z" fill="#B9B8B8"/>
<path d="M63.9367 134.004C68.6947 133.918 82.7877 135.042 83.5177 141.235C79.7557 151.247 52.8747 182.696 44.6447 190.893C36.8577 198.813 32.2327 203.514 30.3747 187.614C27.7777 165.389 38.6507 136.586 63.9367 134.004Z" fill="#B9B8B8"/>
<path d="M510.802 87C517.767 89.9968 519.743 110.376 525.707 117.517C532.665 125.849 542.508 128.696 551.636 134.328C556.886 137.568 560.883 140.195 565.778 143.703C563.746 144.854 561.721 146.016 559.701 147.19C547.546 154.291 540.62 165.061 537.627 178.59C534.235 193.922 531.638 210.44 550.254 214.609C546.853 217.637 542.648 220.293 538.988 223.634C527.925 233.731 523.667 245.355 519.589 259.062C515.764 273.272 513.924 287.013 511.268 301.416C509.238 288.032 510.249 260.288 510.156 245.62C510.019 223.932 510 200.802 510.818 179.131C511.021 173.751 508.674 172.148 509.337 168.769C513.519 163.68 512.155 161.225 514.267 153.998C511.521 151.673 509.088 150.42 509.786 146.696C511.323 144.706 513.096 144.243 515.452 143.237C514.379 141.017 513.112 138.614 511.723 136.594C507.919 131.067 509.956 131.74 512.494 127.92C512.785 122.987 507.123 120.955 511.396 114.408C512.566 112.616 510.007 108.129 509 106.092C510.161 100.122 508.789 91.4826 510.802 87Z" fill="#B9B8B8"/>
<path d="M503.71 88C508.176 89.9048 504.885 109.041 503.793 113.269C503.258 115.346 504.669 116.805 505.612 118.709C505.015 121.932 503.267 124.831 501.728 127.745L506 132.323C504.206 136.895 501.371 139.044 500.759 144.08C503.044 148.67 510.438 147.498 500.084 155.129C502.19 158.801 502.443 162.207 502.93 166.335L505.624 169.403C506.329 172.826 504.774 173.051 504.538 175.654C503.888 182.833 504.631 192.335 504.67 199.522L504.872 261.791C504.903 273.212 505.43 290.106 504.154 301C500.882 286.837 500.288 274.976 496.169 259.329C489.392 235.475 484.463 229.477 464.908 215.473C470.544 214.056 474.445 213.383 477.83 208.037C482.123 201.26 480.874 187.693 478.747 180.345C472.834 159.911 466.844 154.407 450 144.26C454.921 140.456 460.908 136.896 466.288 133.714C476.094 127.931 487.195 124.303 492.27 113.238C495.878 105.369 497.844 94.4398 503.71 88Z" fill="#B9B8B8"/>
<path d="M435.199 208.024C435.826 207.997 436.445 207.984 437.071 208.034C438.525 208.151 466.203 220.816 468.779 222.457C472.557 224.842 475.945 227.796 478.824 231.213C493.58 248.624 495.981 276.125 499.211 297.796C500.67 307.59 499.983 316.339 499.117 326.128C500.73 322.969 501.849 320.051 503.145 316.769C504.07 322.579 504.735 327.219 506.72 332.794C508.932 327.396 509.513 321.771 510.901 315.975C511.9 320.203 512.808 322.638 514.314 326.663C514.063 321.791 513.465 311.408 513.905 306.867C516.031 284.931 520.908 249.66 535.26 232.4C538.209 228.815 541.684 225.698 545.567 223.154C549.663 220.46 576.992 206.448 580.025 209.189C581.339 213.189 580.458 218.611 580.047 222.886C579.6 227.117 578.915 231.319 577.994 235.473C574.998 248.53 566.262 265.955 558.137 276.628C551.656 285.14 548.074 288.377 542.482 298.072C532.84 314.789 526.123 353.054 510.17 363.021C507.642 363.054 505.09 362.775 502.565 362.563C487.814 348.232 482.564 316.053 472.304 298.146C467.049 288.974 463.243 285.272 456.867 277.109C450.131 268.559 444.653 259.088 440.6 248.984C437.21 240.337 431.506 216.492 435.199 208.024Z" fill="#B9B8B8"/>
<path d="M450 143.5V145H566V143H450V143.5Z" fill="#3A3E42"/>
<path d="M500.943 143.013L501.168 142L501.492 141L501.898 140.008L502.395 139.008L502.953 137.996L504.141 136.016L504.746 134.973L505.371 133.758L505.734 132.969L505.996 132.328L504.664 130.887L503.238 129.364L501.73 127.746L502.668 125.996L503.791 123.828L504.617 122.026L505.149 120.554L505.415 119.627L505.607 118.724L505.089 117.747L504.479 116.706L503.97 115.679C503.489 114.342 503.674 113.614 504.02 112.344L504.488 110.008L504.841 108.009L505.146 106.004L505.416 104.003L505.728 101.008L505.912 98.4595L505.99 96.387L505.969 95.0101L505.941 94.0164L505.834 92.7531C505.761 92.0377 505.694 91.6636 505.55 91.0212L505.344 90.2305L505.062 89.4961L504.719 88.875L504.371 88.4609L504.125 88.2383L503.961 88.1211L503.719 88L503.535 88.1953L503.102 88.6914L502.578 89.3555L502.164 89.918L501.707 90.5742L500.965 91.7266L500.309 92.8789L499.695 94.0703L499.141 95.1992L498.535 96.5625L497.863 98.1953L497.379 99.4414L496.766 101.094L496.41 102.098L495.93 103.484L495.633 104.332L495.195 105.633L494.824 106.668L494.457 107.707L494.281 108.195L493.98 109.035L493.688 109.816L493.258 110.93L492.926 111.738L492.461 112.801L491.973 113.867L491.375 115.004L490.785 116.004L490.105 117.043L489.414 117.996L488.559 119.059L487.637 120.086L486.719 121.02L485.656 122.004L484 123.375L482.992 124.125L480.984 125.504L478.996 126.746L477 127.879L474.98 128.996L472.754 130.176L470.863 131.172L469.543 131.883L468.398 132.516L466.848 133.387L465.641 134.105L463.902 135.137L462.664 135.867L461.652 136.48L460.406 137.246L459.223 137.977L457.723 138.922L455.781 140.176L454.504 141.008L453.391 141.793L452.617 142.316L451.684 143.004L500.943 143.013Z" fill="#B9B8B8"/>
<path d="M515.34 143H564.785L564.18 142.57L562.898 141.676L561.352 140.598L559.953 139.652L558.734 138.844L557.457 138.012L556.082 137.125L554.656 136.219L552.941 135.145L551.516 134.258L549.719 133.199L547.996 132.227L545.68 130.992L543.734 130.004L542.008 129.113L539.852 128.008L538.004 127.027L536.633 126.254L535.285 125.457L534.289 124.848L533.52 124.352L532.738 123.816L531.836 123.184L530.707 122.336L529.809 121.605L528.957 120.867L528.035 120.02L527.066 119.047L526.234 118.129L525.5 117.254L524.953 116.535L524.496 115.832L524.051 115.07L523.605 114.227L523.152 113.297L522.746 112.398L522.309 111.355L521.816 110.09L521.172 108.348L520.52 106.473L519.98 104.855L519.402 103.066L518.938 101.664L518.305 99.7383L517.711 98.0156L517.242 96.7266L516.738 95.4062L516.215 94.1719L515.797 93.2031L515.258 92.0977L514.645 90.957L514.004 89.9492L513.246 88.9297L512.496 88.1445L512.02 87.7422L511.434 87.3281L510.801 87.0078L510.477 87.8125L510.223 88.7617L510.035 89.6406L509.898 90.5039L509.801 91.3555L509.695 92.6055L509.621 94.25L509.578 96.0117L509.562 97.2109L509.547 98.1875L509.527 99.7422L509.477 101.461L509.41 102.68L509.281 104.211C509.204 104.936 509.136 105.353 509 106.102L510.062 108.195L510.91 110.074C511.173 110.724 511.291 110.85 511.492 111.785C511.693 112.72 511.807 113.266 511.559 114.098L511.125 114.848L510.605 115.785L510.277 116.516L510.074 117.113L509.906 117.824L509.812 118.52L509.797 119.211L509.879 120.008L510.051 120.707L510.262 121.289L510.715 122.34L511.125 123.164L511.531 123.961L511.855 124.684C512.04 125.117 512.133 125.374 512.273 125.867L512.449 126.703L512.512 127.508L512.496 127.926L511.879 128.785L511.105 129.723L510.398 130.543L509.91 131.211C509.642 131.724 509.587 132.023 509.648 132.598L509.758 133.102L509.996 133.711L510.266 134.273L510.543 134.773L510.902 135.355L511.379 136.078L512.012 137.008L512.52 137.82L512.93 138.484L513.312 139.133L513.855 140.109L514.402 141.156L514.719 141.762L514.965 142.266L515.34 143Z" fill="#B9B8B8"/>
</svg>
