<svg width="56" height="56" viewBox="0 0 56 56" fill="none" xmlns="http://www.w3.org/2000/svg">
<path d="M6.33984 55.9922H55.7852L55.1797 55.5625L53.8984 54.668L52.3516 53.5898L50.9531 52.6445L49.7344 51.8359L48.457 51.0039L47.082 50.1172L45.6562 49.2109L43.9414 48.1367L42.5156 47.25L40.7188 46.1914L38.9961 45.2188L36.6797 43.9844L34.7344 42.9961L33.0078 42.1055L30.8516 41L29.0039 40.0195L27.6328 39.2461L26.2852 38.4492L25.2891 37.8398L24.5195 37.3438L23.7383 36.8086L22.8359 36.1758L21.707 35.3281L20.8086 34.5977L19.957 33.8594L19.0352 33.0117L18.0664 32.0391L17.2344 31.1211L16.5 30.2461L15.9531 29.5273L15.4961 28.8242L15.0508 28.0625L14.6055 27.2188L14.1523 26.2891L13.7461 25.3906L13.3086 24.3477L12.8164 23.082L12.1719 21.3398L11.5195 19.4648L10.9805 17.8477L10.4023 16.0586L9.9375 14.6562L9.30469 12.7305L8.71094 11.0078L8.24219 9.71875L7.73828 8.39844L7.21484 7.16406L6.79688 6.19531L6.25781 5.08984L5.64453 3.94922L5.00391 2.94141L4.24609 1.92188L3.49609 1.13672L3.01953 0.734375L2.43359 0.320312L1.80078 0L1.47656 0.804688L1.22266 1.75391L1.03516 2.63281L0.898438 3.49609L0.800781 4.34766L0.695312 5.59766L0.621094 7.24219L0.578125 9.00391L0.5625 10.2031L0.546875 11.1797L0.527344 12.7344L0.476562 14.4531L0.410156 15.6719L0.28125 17.2031C0.203509 17.9284 0.136109 18.3451 0 19.0938L1.0625 21.1875L1.91016 23.0664C2.17275 23.7164 2.29149 23.8424 2.49219 24.7773C2.69289 25.7122 2.80657 26.2583 2.55859 27.0898L2.125 27.8398L1.60547 28.7773L1.27734 29.5078L1.07422 30.1055L0.90625 30.8164L0.8125 31.5117L0.796875 32.2031L0.878906 33L1.05078 33.6992L1.26172 34.2812L1.71484 35.332L2.125 36.1562L2.53125 36.9531L2.85547 37.6758C3.04025 38.109 3.13324 38.3661 3.27344 38.8594L3.44922 39.6953L3.51172 40.5L3.49609 40.918L2.87891 41.7773L2.10547 42.7148L1.39844 43.5352L0.910156 44.2031C0.641789 44.7158 0.587273 45.0151 0.648438 45.5898L0.757812 46.0938L0.996094 46.7031L1.26562 47.2656L1.54297 47.7656L1.90234 48.3477L2.37891 49.0703L3.01172 50L3.51953 50.8125L3.92969 51.4766L4.3125 52.125L4.85547 53.1016L5.40234 54.1484L5.71875 54.7539L5.96484 55.2578L6.33984 55.9922Z" fill="#B9B8B8"/>
</svg>
