<svg width="55" height="56" viewBox="0 0 55 56" fill="none" xmlns="http://www.w3.org/2000/svg">
<path d="M49.2589 55.0127L49.4844 54.0003L49.8086 53.0003L50.2148 52.0081L50.7109 51.0081L51.2695 49.9964L52.457 48.0159L53.0625 46.9729L53.6875 45.7581L54.0508 44.969L54.3125 44.3284L52.9805 42.887L51.5547 41.3636L50.0469 39.7464L50.9844 37.9964L52.1078 35.828L52.9333 34.0257L53.4652 32.5536L53.7312 31.6272L53.9238 30.7238L53.4056 29.747L52.7957 28.7061L52.2866 27.6788C51.8058 26.342 51.9905 25.6139 52.3359 24.3439L52.804 22.0081L53.1577 20.0087L53.4623 18.0042L53.732 16.0027L54.0443 13.0075L54.2288 10.4595L54.3069 8.38699L54.2856 7.01006L54.2572 6.01642L54.1507 4.75308C54.0778 4.03769 54.0099 3.66357 53.8668 3.02124L53.6602 2.23047L53.3789 1.49609L53.0352 0.875L52.6875 0.460938L52.4414 0.238281L52.2773 0.121094L52.0352 0L51.8516 0.195312L51.418 0.691406L50.8945 1.35547L50.4805 1.91797L50.0234 2.57422L49.2812 3.72656L48.625 4.87891L48.0117 6.07031L47.457 7.19922L46.8516 8.5625L46.1797 10.1953L45.6953 11.4414L45.082 13.0938L44.7266 14.0977L44.2461 15.4844L43.9492 16.332L43.5117 17.6328L43.1406 18.668L42.7734 19.707L42.5977 20.1953L42.2969 21.0352L42.0039 21.8164L41.5742 22.9297L41.2422 23.7383L40.7773 24.8008L40.2891 25.8672L39.6914 27.0039L39.1016 28.0039L38.4219 29.043L37.7305 29.9961L36.875 31.0586L35.9531 32.0859L35.0352 33.0195L33.9727 34.0039L32.3164 35.375L31.3086 36.125L29.3008 37.5039L27.3125 38.7461L25.3164 39.8789L23.2969 40.9961L21.0703 42.1758L19.1797 43.1719L17.8594 43.8828L16.7148 44.5156L15.1641 45.3867L13.957 46.1055L12.2188 47.1367L10.9805 47.8672L9.96875 48.4805L8.72266 49.2461L7.53906 49.9766L6.03906 50.9219L4.09766 52.1758L2.82031 53.0078L1.70703 53.793L0.933594 54.3164L0 55.0039L49.2589 55.0127Z" fill="#B9B8B8"/>
</svg>
