<svg width="26" height="84" viewBox="0 0 26 84" fill="none" xmlns="http://www.w3.org/2000/svg">
<path d="M10.658 0C13.926 1.289 16.808 6.39496 19.529 8.94196C21.356 10.651 23.521 12.087 25.589 13.486C25.553 25.494 23.151 37.959 22.065 49.959C21.363 57.719 21.234 74.435 19.364 81.068C18.92 82.642 17.347 83.223 15.994 83.887C13.641 83.932 10.471 84.298 8.586 82.642C7.552 81.735 7.64201 80.106 7.51001 78.77C6.55801 69.134 6.02097 59.461 4.74597 49.857C3.26797 38.725 1.003 27.576 0 16.4C3.913 10.812 7.59296 6.149 10.658 0Z" fill="#B9B8B8"/>
</svg>
