<svg width="35" height="66" viewBox="0 0 35 66" fill="none" xmlns="http://www.w3.org/2000/svg">
<path d="M16.4162 0C17.3412 0.079 18.4522 0.129035 19.2942 0.548035C22.7602 2.27203 23.7542 8.94103 25.7262 12.09C28.0802 15.849 32.7562 19.4831 33.9592 23.7531C34.5992 26.0211 33.8012 28.8291 32.9522 30.9771C30.9842 35.9541 27.5812 40.723 24.9672 45.427C21.6952 51.317 18.7712 57.413 15.6233 63.373C15.0883 63.922 14.4902 64.588 13.8272 64.978C12.3862 65.826 11.5082 65.6251 10.0252 65.2401C9.33523 64.6021 8.73023 63.94 8.31923 63.083C6.27023 58.8 6.34324 53.149 5.35524 48.534C2.24524 34.006 -1.96077 32.048 1.01723 15.845C1.45423 13.464 1.48624 10.475 2.44524 8.27802C4.09624 4.49602 12.8202 1.631 16.4162 0Z" fill="#B9B8B8"/>
</svg>
