<svg width="294" height="790" viewBox="0 0 294 790" fill="none" xmlns="http://www.w3.org/2000/svg">
<path d="M143.396 0.190011C143.797 0.150011 144.199 0.117011 144.601 0.0909112C165.769 -1.25379 181.251 12.4222 179.89 34.2581C179.685 37.5452 179.633 41.5497 179.817 44.8278C180.237 44.7961 180.657 44.7702 181.078 44.75C183.242 44.6652 182.917 44.7357 184.159 45.9152C187.419 54.2048 179.424 65.2296 177.378 72.5729C173.932 84.9437 167.495 103.464 182.578 110.135C194.795 115.538 205.963 123.552 218.076 129.023C222.09 130.836 230.059 129.833 234.491 130.755C267.286 136.362 273.182 173.462 268.001 200.904C267.742 202.277 272.807 217.899 273.331 222.198C274.511 231.866 273.331 241.775 275.278 251.234C278.086 262.097 284.763 274.153 285.835 285.445C288.843 317.134 285.804 348.456 290.991 380.372C293.114 393.43 295.747 404.188 290.123 415.992C284.834 427.089 280.17 433.541 269.617 440.524C267.482 441.936 266.066 442.634 263.605 442.088C257.432 436.939 267.805 427.049 271.33 422.214C274.577 417.759 278.435 403.574 272.846 400.474C267.58 403.57 271.452 426.12 259.264 420.341C258.497 418.964 258.429 419.088 258.531 417.306C258.776 413.056 259.631 408.631 260.125 404.369C260.621 400.082 260.287 394.272 261.42 390.301C263.428 383.264 269.611 375.242 268.296 367.55C264.43 345.23 249.651 327.381 242.7 306.137C237.77 291.071 240.105 279.626 239.299 264.729C239.084 260.759 232.207 248.886 230.263 244.394C227.62 238.29 225.638 232.949 223.562 226.386C219.014 239.108 212.643 255.234 210.28 268.283C207.899 281.435 211.545 296.241 213.455 309.181C214.178 314.084 212.12 321.691 213.084 326.876C215.248 338.516 220.626 350.422 223.42 361.823C230.653 391.338 236.799 424.012 238.171 454.321C238.755 467.22 235.734 487.785 233.064 500.204C229.553 516.527 225.467 530.629 227.313 547.744C229.574 568.705 242.502 588.636 243.093 610.336C243.485 624.752 240.017 638.726 237.533 652.797C233.084 677.998 227.671 704.008 231.049 729.642C233.02 744.597 237.667 753.587 247.402 765.301C250.323 768.816 255.749 771.546 257.158 776.257C257.729 778.167 256.773 781.778 256.001 782.278C250.739 785.685 238.418 788.655 232.774 789.238C225.217 790.02 218.317 789.188 213.868 782.886C212.978 781.714 209.704 775.366 208.915 774.826C195.357 765.545 198.17 762.367 200.999 747.846C201.54 745.07 199.337 737.659 199.892 734.183C201.619 723.376 204.285 712.54 203.034 701.41C201.463 685.48 198.374 668.966 193.199 653.779C189.798 643.797 184.815 634.177 182.679 623.751C178.358 603.919 187.507 585.716 184.933 566.431C184.172 560.729 180.225 551.968 178.509 546.063L161.687 488.721C152.731 458.284 151.959 444.122 148.956 413.591C148.068 412.424 147.606 412.223 146.346 412.347C145.568 413.123 144.956 414.258 144.926 415.358C144.062 446.688 137.326 471.925 128.316 501.698L117.923 536.891C115.154 546.069 111.949 555.622 109.82 564.994C108.266 572.49 109.255 582.252 110.745 589.631C115.681 614.071 111.392 629.238 101.895 651.605C94.8979 668.084 91.5179 692.833 90.2999 710.725C89.8119 717.897 92.7079 725.475 93.6339 732.539C94.3879 735.778 91.6869 744.637 92.1139 747.116C94.5199 761.086 99.0579 764.636 85.1319 774.378C84.0759 775.117 78.5399 783.527 76.2279 785.736C70.5799 791.13 63.9219 789.526 56.8249 788.819C51.5829 788.13 38.1389 785.663 36.3159 779.553C34.9179 773.537 41.8039 769.534 45.1059 765.896C82.8789 724.284 52.1689 662.061 50.749 613.725C50.082 591.036 63.7529 571.325 66.5639 549.35C69.4079 527.114 62.8919 511.779 58.9639 491.121C56.7249 479.147 55.7549 466.97 56.0719 454.792C56.466 438.448 58.2399 429.114 60.5769 413.354C63.2349 395.424 65.8939 379.346 70.7479 361.766C73.7819 350.776 78.2489 339.343 80.8699 328.377C82.1609 322.977 80.0229 313.441 81.0399 306.837C82.6589 296.318 86.0219 283.996 84.5899 273.492C82.4719 257.966 76.0399 241.282 71.0099 226.4C68.9429 233.219 66.3439 239.864 63.236 246.276C55.866 261.254 52.6939 262.349 54.8679 279.839C55.6749 286.334 53.1219 302.386 50.8719 308.549C43.7899 327.945 29.7239 345.444 26.2959 366.382C24.7329 375.126 30.5349 382.456 32.6569 390.438C33.7079 395.682 33.3599 401.019 34.1059 406.369C34.4689 408.978 36.9249 420.199 34.111 421.392C23.451 425.911 25.3369 402.511 21.0259 400.641C15.3179 404.109 19.8859 419.386 23.6819 423.72C27.5309 428.115 36.1719 437.17 30.4779 442.349C28.8469 442.812 27.8079 442.719 26.2379 442.033C14.2339 436.79 5.40693 422.154 0.974932 410.314C-1.17707 404.566 0.793938 395.784 1.56194 389.771C2.66594 381.132 3.25494 372.501 4.24994 363.869C5.07294 356.728 6.43094 349.711 6.66194 342.505C7.18694 326.112 5.49194 309.472 7.37194 293.15C9.15194 277.696 16.8829 264.251 19.4779 249.22C21.1009 239.825 19.9419 229.95 21.3119 220.443C22.3089 213.526 25.6919 207.026 26.2639 200.049C26.5789 196.217 25.3099 192.167 24.857 188.36C23.558 177.457 25.4189 165.326 30.0519 155.378C36.1639 142.251 46.7999 131.667 61.7519 130.419C66.8309 129.995 72.9279 130.326 77.6989 128.413C83.7029 126.005 89.5379 121.69 95.2419 118.577C101.755 115.023 108.779 112.076 114.992 108.025C116.306 107.167 118.072 106.093 118.609 104.552C122.429 93.585 119.92 81.0009 115.406 70.5515C112.792 64.5013 109.658 58.7659 108.892 52.113C107.778 42.4329 112.185 46.2074 113.712 44.3127C113.964 44.0005 111.07 22.9686 120.762 10.9559C126.594 3.72801 134.439 1.11131 143.396 0.190011Z" fill="#3A3E42"/>
</svg>
