<svg width="56" height="213" viewBox="0 0 56 213" fill="none" xmlns="http://www.w3.org/2000/svg">
<path d="M53.7097 0C58.1756 1.90482 54.8845 21.0413 53.7932 25.2685C53.2576 27.3456 54.6691 28.8054 55.6124 30.7094C55.0154 33.9322 53.2667 36.8307 51.7284 39.7453L56 44.3227C54.206 48.8952 51.371 51.0443 50.7589 56.08C53.0442 60.6705 60.4377 59.4978 50.0844 67.1289C52.1895 70.8009 52.4432 74.2067 52.9304 78.3349L55.6235 81.4026C56.3292 84.8264 54.7738 85.0505 54.5382 87.6539C53.8879 94.8328 54.6308 104.335 54.6701 111.522L54.8725 173.791C54.9027 185.212 55.4302 202.106 54.1536 213C50.8817 198.837 50.2877 186.976 46.1692 171.329C39.3918 147.475 34.4628 141.477 14.9078 127.473C20.5436 126.056 24.4447 125.383 27.8303 120.037C32.1231 113.26 30.8737 99.6934 28.7475 92.3454C22.8339 71.9115 16.8438 66.4066 0 56.2601C4.92095 52.4561 10.9081 48.8962 16.2881 45.7145C26.0937 39.9314 37.1951 36.3034 42.2701 25.2375C45.8782 17.3693 47.8444 6.43985 53.7097 0Z" fill="#B9B8B8"/>
</svg>
