<svg width="31" height="148" viewBox="0 0 31 148" fill="none" xmlns="http://www.w3.org/2000/svg">
<path d="M23.9855 0L25.5175 0.493042C26.1395 1.13904 26.5635 1.67501 26.8635 2.53601C27.9115 5.54301 27.8055 8.99501 28.2025 12.143C29.7255 24.246 31.8085 36.4091 30.2875 48.6281C28.8145 60.4541 23.0425 69.785 18.6135 80.549C15.0115 89.303 12.3255 98.813 10.5915 108.109C9.21047 115.515 8.64749 123.69 8.74849 131.231C8.80449 135.453 9.30947 139.93 9.02147 144.127C8.94547 145.246 8.61746 146.162 8.10746 147.148L7.64348 147.208C5.40447 147.476 4.20349 147.545 2.40349 146.15C0.758485 143.065 0.60647 139.346 0.44447 135.921C-1.18753 101.356 0.635485 25.589 23.9855 0Z" fill="#B9B8B8"/>
</svg>
