<svg width="23" height="153" viewBox="0 0 23 153" fill="none" xmlns="http://www.w3.org/2000/svg">
<path d="M13.7199 0C14.9869 0.372 16.0319 1.00598 16.7719 2.12598C18.8869 5.32598 19.4159 10.387 20.0399 14.139C23.8749 37.184 22.4879 56.656 21.1719 79.67C20.5379 92.053 20.0539 104.444 19.7189 116.84C19.5049 124.933 21.1269 142.68 19.4129 149.331C18.9399 151.166 18.3579 151.773 16.7329 152.681C15.7589 152.648 14.5989 152.703 13.6869 152.334C12.5609 151.876 12.4389 151.12 11.9469 150.102C11.7269 132.544 11.1449 115.776 8.27093 98.373C6.31293 86.516 3.18294 74.884 1.16894 63.046C-2.21606 43.143 1.68593 16.922 13.7199 0Z" fill="#B9B8B8"/>
</svg>
