<svg width="31" height="149" viewBox="0 0 31 149" fill="none" xmlns="http://www.w3.org/2000/svg">
<path d="M5.41398 0C9.27998 1.211 11.671 5.93999 13.421 9.32599C18.694 19.528 22.19 30.946 24.475 42.172C28.273 60.838 33.877 129.308 28.771 145.313C27.551 146.902 26.333 147.328 24.523 148.028C23.699 147.631 22.285 146.944 21.815 146.112C21.348 145.286 21.85 121.566 21.431 117.353C20.205 105.012 17.145 92.063 12.207 80.669C9.38498 74.156 5.97599 67.872 3.58699 61.177C1.78599 56.242 0.646988 51.091 0.198988 45.857C-0.645012 35.485 1.21498 8.877 5.41398 0Z" fill="#B9B8B8"/>
</svg>
