<svg width="34" height="133" viewBox="0 0 34 133" fill="none" xmlns="http://www.w3.org/2000/svg">
<path d="M25.3587 0.0275935C26.8347 -0.0314065 28.2597 -0.0674232 29.5757 0.710577C31.3947 1.78558 32.2997 4.01757 32.7977 5.97257C34.1137 11.1416 33.5457 17.0476 33.1047 22.3266C31.9937 35.0666 29.7267 47.6796 26.3327 60.0086C22.8637 72.5316 18.5697 84.9176 16.0567 97.6786C14.8967 103.568 12.5587 129.055 10.5767 132.467L9.82769 132.162C9.42669 131.063 9.05571 129.954 8.71471 128.835C-1.06329 97.5206 -2.39931 67.5956 3.63469 35.4376C5.57869 25.0746 8.17368 13.7536 13.0987 4.3686C17.0927 1.9096 20.7447 0.792593 25.3587 0.0275935Z" fill="#B9B8B8"/>
</svg>
