<svg width="57" height="215" viewBox="0 0 57 215" fill="none" xmlns="http://www.w3.org/2000/svg">
<path d="M1.802 0C8.767 2.9968 10.743 23.3759 16.707 30.5169C23.665 38.8489 33.508 41.6959 42.636 47.3279C47.886 50.5679 51.883 53.1949 56.778 56.7029C54.746 57.8539 52.721 59.0159 50.701 60.1899C38.546 67.2909 31.62 78.0609 28.627 91.5899C25.235 106.922 22.638 123.44 41.254 127.609C37.853 130.637 33.648 133.293 29.988 136.634C18.925 146.731 14.667 158.355 10.589 172.062C6.76399 186.272 4.92401 200.013 2.26801 214.416C0.238005 201.032 1.24901 173.288 1.15601 158.62C1.01901 136.932 0.999993 113.802 1.81799 92.1309C2.02099 86.7509 -0.325964 85.1479 0.337036 81.7689C4.51904 76.6799 3.15503 74.2249 5.26703 66.9979C2.52103 64.6729 0.0880107 63.4199 0.786011 59.6959C2.32301 57.7059 4.09603 57.2429 6.45203 56.2369C5.37903 54.0169 4.11202 51.6139 2.72302 49.5939C-1.08098 44.0669 0.956018 44.7399 3.49402 40.9199C3.78502 35.9869 -1.877 33.9549 2.396 27.4079C3.566 25.6159 1.007 21.1289 0 19.0919C1.161 13.1219 -0.210998 4.4826 1.802 0Z" fill="#B9B8B8"/>
</svg>
