<svg width="29" height="121" viewBox="0 0 29 121" fill="none" xmlns="http://www.w3.org/2000/svg">
<path d="M25.0368 0.0632074C26.1298 -0.0587926 26.9528 0.00622551 28.0248 0.169226L28.4368 1.01722C22.3748 22.3102 20.6558 44.4122 17.8898 66.2892C16.4798 77.4372 15.3208 88.8772 11.8208 99.6052C9.48078 106.777 6.07777 113.07 1.84477 119.263L0.446818 120.357C0.245818 120.026 0.0957746 119.842 0.0527746 119.413C-0.231225 116.606 0.711771 112.806 0.961771 109.912C1.50077 103.67 1.83278 97.3982 2.20378 91.1432C3.29378 72.7472 1.98079 19.3062 12.6148 5.68122C15.6828 1.74922 20.3928 0.758207 25.0368 0.0632074Z" fill="#B9B8B8"/>
</svg>
