<svg width="147" height="156" viewBox="0 0 147 156" fill="none" xmlns="http://www.w3.org/2000/svg">
<path d="M1.19937 0.0238887C1.82637 -0.00311126 2.44537 -0.0161168 3.07137 0.0338832C4.52537 0.150883 32.2034 12.8159 34.7794 14.4569C38.5574 16.8419 41.9454 19.7959 44.8244 23.2129C59.5804 40.6239 61.9814 68.1249 65.2114 89.7959C66.6704 99.5899 65.9834 108.339 65.1174 118.128C66.7304 114.969 67.8494 112.051 69.1454 108.769C70.0704 114.579 70.7354 119.219 72.7204 124.794C74.9324 119.396 75.5134 113.771 76.9014 107.975C77.9004 112.203 78.8084 114.638 80.3144 118.663C80.0634 113.791 79.4654 103.408 79.9054 98.8669C82.0314 76.9309 86.9084 41.6599 101.26 24.3999C104.209 20.8149 107.684 17.6979 111.567 15.1539C115.663 12.4599 142.992 -1.55212 146.025 1.18888C147.339 5.18888 146.458 10.6109 146.047 14.8859C145.6 19.1169 144.915 23.3189 143.994 27.4729C140.998 40.5299 132.262 57.9549 124.137 68.6279C117.656 77.1399 114.074 80.3769 108.482 90.0719C98.8404 106.789 92.1234 145.054 76.1704 155.021C73.6424 155.054 71.0904 154.775 68.5654 154.563C53.8144 140.232 48.5644 108.053 38.3044 90.1459C33.0494 80.9739 29.2434 77.2719 22.8674 69.1089C16.1314 60.5589 10.6534 51.0879 6.60037 40.9839C3.21037 32.3369 -2.49363 8.49189 1.19937 0.0238887Z" fill="#B9B8B8"/>
</svg>
