<svg width="286" height="779" viewBox="0 0 286 779" fill="none" xmlns="http://www.w3.org/2000/svg">
<path d="M139.118 0.278307C161.8 -2.19789 178.241 12.0552 176.972 34.834C176.852 36.9794 176.012 43.7445 176.899 45.2214C178.919 45.6224 179.291 45.5653 180.84 46.7984C184.071 53.6033 175.817 66.3408 173.633 73.0113C170.446 82.746 166.761 95.8956 172.179 105.436C173.599 107.935 182.892 112.411 185.603 114.044C195.08 119.011 203.865 125.061 213.517 129.604C215.988 130.322 219.703 130.115 222.161 130.289C251.819 132.241 264.354 163.022 262.911 189.249C262.418 198.221 266.536 208.981 267.619 217.952C267.848 219.849 268.177 221.925 268.429 223.858C269.465 231.81 268.422 240.112 269.341 248.033C270.813 260.726 278.033 272.255 279.452 284.991C282.306 304.07 280.299 323.153 281.006 342.31C280.994 350.79 283.576 359.651 283.112 368.111C282.375 381.572 289.235 398.664 283.446 411.023C280.661 416.968 277.371 424.16 272.992 428.767C269.693 432.238 258.017 442.244 253.136 437.506C251.9 433.317 260.227 424.795 262.638 420.847C265.119 416.786 272.777 399.562 263.57 398.748C260.709 403.641 262.398 415.624 255.525 418.834C254.063 418.926 250.931 418.393 251.116 416.674C252.054 407.952 252.239 396.016 253.963 387.661C255.393 380.73 262.983 373.067 261.631 364.657C258.053 342.407 243.963 324.5 237.036 303.526C231.865 288.375 235.982 275.834 234.077 262.268C233.037 254.854 223.396 239.202 220.378 230.107C218.753 235.039 216.574 241.794 214.434 246.022C206.237 262.218 201.141 271.879 203.722 290.55C204.499 296.171 202.267 306.643 203.447 313.412C206.98 333.878 215.11 353.189 219.752 373.507C228.439 411.533 236.605 452.446 232.16 491.522C229.865 511.696 225.226 529.475 228.096 550.067C230.364 570.815 243.943 592.972 242.546 613.954C240.361 646.794 232.227 679.67 231.657 712.716C231.522 720.578 233.988 729.793 234.381 737.606C235.194 753.812 254.434 757.379 260.098 765.22C261.306 774.46 242.86 774.056 237.766 775.327C218.528 780.129 194.926 785.084 202.528 755.386C203.16 752.918 204.04 748.539 204.208 745.938C204.522 741.08 201.495 734.169 201.778 729.427C202.239 721.702 204.793 714.66 203.601 706.754C201.598 687.549 197.404 667.562 191.073 649.359C187.871 640.154 183.9 633.619 181.613 623.85C177.073 604.459 186.068 584.954 183.924 566.147C182.527 559.305 180.085 552.681 178.227 545.957C171.155 520.357 160.904 496.097 153.896 470.484C148.873 452.127 146.764 435.272 144.868 416.425C144.779 415.208 144.525 413.713 143.494 413.099C139.624 415.4 138.535 438.165 137.631 443.789C133.305 470.717 123.916 493.084 115.203 518.537C111.931 528.095 109.31 537.716 106.657 547.45C104.72 554.557 102.066 561.927 101.016 569.2C100.25 574.502 101.445 580.035 102.23 585.267C103.936 596.621 106.276 609.372 103.987 620.775C101.842 631.466 96.5761 641.025 92.9391 651.208C87.2971 667 82.9361 686.913 81.0941 703.485C80.0462 712.909 82.4231 721.566 82.1701 730.747C82.0241 736.046 79.8692 741.312 80.1712 746.634C80.5972 754.149 85.1311 763.241 82.8271 770.636C81.9991 773.295 79.6871 775.383 77.2671 776.654C69.0431 780.976 41.0432 775.528 31.4662 772.778C28.4322 771.907 25.3422 770.721 23.7442 767.83C23.6692 760.76 35.8191 757.887 40.8581 752.89C49.6511 744.169 49.1131 738.262 50.9851 726.883C57.4741 687.446 42.2592 648.019 42.7762 608.716C42.9712 593.905 50.9352 576.604 54.8252 562.313C57.1442 553.621 58.3381 544.668 58.3781 535.672C58.5981 518.951 55.1272 505.36 52.9742 488.924C51.4162 477.027 51.5831 461.88 52.7821 449.883C55.7881 419.818 63.0671 388.309 70.5271 359.022C73.4981 345.193 80.3071 330.96 82.4591 317.074C84.4631 304.142 82.3021 287.926 84.1861 274.498C84.7331 270.601 82.5632 264.598 80.8012 261.131C75.5932 250.886 71.6001 241.157 68.0191 230.218C66.1691 235.275 64.0542 240.232 61.6852 245.068C52.7762 263.111 52.8742 257.821 53.4352 278.562C53.7032 288.6 52.2241 298.607 49.0631 308.138C43.0411 326.208 27.9251 344.94 25.4051 365.45C24.4811 372.966 32.3562 383.818 32.5732 387.829C32.8362 392.672 35.5301 414.046 34.8501 417.562C27.3871 425.454 24.0662 405.06 23.9792 401.439C23.9512 400.28 22.7181 399.476 21.7851 398.92L20.5741 399.479C10.7461 414.4 36.4461 431.047 30.6161 438.489C28.9531 439.329 27.8682 439.528 26.0732 438.865C15.0532 434.795 5.86414 419.194 1.14914 408.973C-1.33986 403.578 0.889143 394.347 1.56314 388.541C2.56514 379.918 3.00017 371.334 3.85117 362.719C4.65017 354.629 6.08615 346.831 6.37015 338.677C6.90615 323.324 5.60317 308.247 7.41117 292.888C9.44816 275.594 16.6251 262.065 19.2021 246.169C20.3291 239.218 19.4572 231.911 20.0852 224.874C20.8952 215.8 23.7961 207.244 25.0681 198.292C26.9061 185.358 25.2591 173.731 29.9301 160.956C34.3301 148.924 44.6661 134.157 58.2411 131.974C64.6321 130.946 71.3291 131.285 77.3051 128.45C82.0491 126.2 112.391 109.198 114.732 106.788C116.265 105.209 117.082 102.329 117.671 100.226C123.16 80.6117 103.358 57.0619 107.036 48.1841C107.783 46.3792 109.084 45.8077 110.816 45.1097C111.819 44.7058 111.631 42.6665 111.611 41.6217C111.412 31.2165 110.731 22.1637 117.129 13.1799C122.386 5.79801 130.351 1.76851 139.118 0.278307Z" fill="#3A3E42"/>
</svg>
