<svg width="23" height="154" viewBox="0 0 23 154" fill="none" xmlns="http://www.w3.org/2000/svg">
<path d="M6.96828 0C7.81828 0.279 8.60028 0.610036 9.28728 1.19904C12.9693 4.35104 15.1133 11.922 16.6833 16.484C19.9203 25.884 22.6123 35.85 22.8803 45.851C23.3423 63.137 15.2323 89.09 12.5783 107.309C10.5933 120.931 10.1443 134.197 10.4193 147.939C10.4653 149.279 10.4033 150.057 9.82927 151.277C8.57627 152.423 7.93027 152.795 6.23827 153.026C4.59727 152.39 4.38127 152.116 3.30327 150.704C1.64927 142.09 2.93827 122.388 2.67427 112.435C2.05227 88.954 -5.11472 18.142 6.96828 0Z" fill="#B9B8B8"/>
</svg>
